<svg xmlns="http://www.w3.org/2000/svg" viewBox="0 0 29.203 24.429">
  <defs>
    <style>
      .cls-1 {
        fill: #ababab;
        opacity: 0.7;
      }
    </style>
  </defs>
  <path id="Twitter_1_" class="cls-1" d="M123.207,3.4a13.206,13.206,0,0,1-3.819,1.512A5.887,5.887,0,0,0,115.011,3a6.046,6.046,0,0,0-5.968,6.127,8.768,8.768,0,0,0,.159,1.432A16.655,16.655,0,0,1,96.869,4.114a6.651,6.651,0,0,0-.8,3.1A6.146,6.146,0,0,0,98.7,12.31a5.365,5.365,0,0,1-2.705-.8v.08a6.167,6.167,0,0,0,4.774,6.048,5.13,5.13,0,0,1-1.591.239,4.893,4.893,0,0,1-1.114-.08,6.048,6.048,0,0,0,5.57,4.3,11.667,11.667,0,0,1-7.4,2.626,8.648,8.648,0,0,1-1.432-.08,16.544,16.544,0,0,0,9.151,2.785c10.981,0,17.028-9.39,17.028-17.426v-.8A12.819,12.819,0,0,0,124,6.024a12.1,12.1,0,0,1-3.422.955A7.8,7.8,0,0,0,123.207,3.4Z" transform="translate(-94.8 -3)"/>
</svg>
